<?xml version='1.0' encoding='utf-8'?>
<svg xmlns="http://www.w3.org/2000/svg" xmlns:xlink="http://www.w3.org/1999/xlink" width="186.323pt" height="203.707pt" viewBox="0 0 186.323 203.707" version="1.2">
<defs>
<g>
<symbol overflow="visible" id="glyph0-0">
<path style="stroke:none;" d="" />
</symbol>
<symbol overflow="visible" id="glyph0-1">
<path style="stroke:none;" d="M 4.21875 -1.4375 C 4.328125 -1.4375 4.453125 -1.4375 4.453125 -1.5625 C 4.453125 -1.703125 4.328125 -1.703125 4.21875 -1.703125 L 0.765625 -1.703125 C 0.65625 -1.703125 0.53125 -1.703125 0.53125 -1.5625 C 0.53125 -1.4375 0.65625 -1.4375 0.765625 -1.4375 Z M 4.21875 -1.4375 " />
</symbol>
<symbol overflow="visible" id="glyph1-0">
<path style="stroke:none;" d="" />
</symbol>
<symbol overflow="visible" id="glyph1-1">
<path style="stroke:none;" d="M 0.84375 -2.0625 C 0.84375 -2.703125 0.90625 -3.0625 1.078125 -3.390625 C 1.203125 -3.640625 1.5 -4 1.96875 -4 C 2.09375 -4 2.375 -3.984375 2.53125 -3.75 C 2.296875 -3.75 2.1875 -3.640625 2.1875 -3.46875 C 2.1875 -3.3125 2.3125 -3.1875 2.484375 -3.1875 C 2.65625 -3.1875 2.78125 -3.296875 2.78125 -3.484375 C 2.78125 -3.828125 2.53125 -4.15625 1.953125 -4.15625 C 1.15625 -4.15625 0.265625 -3.375 0.265625 -1.96875 C 0.265625 -0.28125 1.03125 0.140625 1.625 0.140625 C 2.3125 0.140625 2.9375 -0.4375 2.9375 -1.265625 C 2.9375 -2.0625 2.359375 -2.65625 1.65625 -2.65625 C 1.28125 -2.65625 1.015625 -2.4375 0.84375 -2.0625 Z M 1.609375 -0.03125 C 1.25 -0.03125 1.046875 -0.328125 0.96875 -0.515625 C 0.859375 -0.796875 0.84375 -1.3125 0.84375 -1.40625 C 0.84375 -1.828125 1.046875 -2.5 1.640625 -2.5 C 1.75 -2.5 2.046875 -2.5 2.25 -2.125 C 2.375 -1.875 2.375 -1.578125 2.375 -1.28125 C 2.375 -0.96875 2.375 -0.671875 2.25 -0.4375 C 2.0625 -0.078125 1.78125 -0.03125 1.609375 -0.03125 Z M 1.609375 -0.03125 " />
</symbol>
<symbol overflow="visible" id="glyph1-2">
<path style="stroke:none;" d="M 1.90625 -2.203125 C 2.484375 -2.421875 2.765625 -2.875 2.765625 -3.3125 C 2.765625 -3.78125 2.234375 -4.15625 1.578125 -4.15625 C 0.9375 -4.15625 0.4375 -3.796875 0.4375 -3.3125 C 0.4375 -3.109375 0.578125 -3 0.765625 -3 C 0.9375 -3 1.078125 -3.125 1.078125 -3.3125 C 1.078125 -3.53125 0.921875 -3.625 0.71875 -3.625 C 0.875 -3.875 1.25 -4 1.5625 -4 C 2.078125 -4 2.1875 -3.59375 2.1875 -3.296875 C 2.1875 -3.109375 2.140625 -2.8125 1.984375 -2.578125 C 1.796875 -2.296875 1.578125 -2.28125 1.390625 -2.265625 C 1.234375 -2.25 1.21875 -2.25 1.171875 -2.25 C 1.125 -2.25 1.0625 -2.25 1.0625 -2.171875 C 1.0625 -2.09375 1.125 -2.09375 1.21875 -2.09375 L 1.515625 -2.09375 C 2.0625 -2.09375 2.296875 -1.65625 2.296875 -1.0625 C 2.296875 -0.265625 1.875 -0.03125 1.5625 -0.03125 C 1.4375 -0.03125 0.828125 -0.0625 0.546875 -0.53125 C 0.78125 -0.5 0.953125 -0.65625 0.953125 -0.875 C 0.953125 -1.078125 0.796875 -1.203125 0.609375 -1.203125 C 0.453125 -1.203125 0.265625 -1.109375 0.265625 -0.84375 C 0.265625 -0.296875 0.84375 0.140625 1.578125 0.140625 C 2.359375 0.140625 2.9375 -0.421875 2.9375 -1.0625 C 2.9375 -1.609375 2.5 -2.0625 1.90625 -2.203125 Z M 1.90625 -2.203125 " />
</symbol>
<symbol overflow="visible" id="glyph2-0">
<path style="stroke:none;" d="" />
</symbol>
<symbol overflow="visible" id="glyph2-1">
<path style="stroke:none;" d="M 2.328125 -2.09375 C 2.359375 -2.28125 2.53125 -2.921875 3.015625 -2.921875 C 3.046875 -2.921875 3.21875 -2.921875 3.359375 -2.828125 C 3.15625 -2.796875 3.03125 -2.625 3.03125 -2.453125 C 3.03125 -2.34375 3.09375 -2.21875 3.28125 -2.21875 C 3.4375 -2.21875 3.671875 -2.34375 3.671875 -2.609375 C 3.671875 -2.96875 3.25 -3.078125 3.015625 -3.078125 C 2.609375 -3.078125 2.375 -2.703125 2.28125 -2.546875 C 2.109375 -3 1.734375 -3.078125 1.53125 -3.078125 C 0.8125 -3.078125 0.421875 -2.171875 0.421875 -2 C 0.421875 -1.9375 0.484375 -1.9375 0.5 -1.9375 C 0.5625 -1.9375 0.578125 -1.953125 0.59375 -2.015625 C 0.828125 -2.75 1.28125 -2.921875 1.515625 -2.921875 C 1.65625 -2.921875 1.890625 -2.859375 1.890625 -2.453125 C 1.890625 -2.234375 1.78125 -1.765625 1.515625 -0.796875 C 1.40625 -0.375 1.171875 -0.078125 0.859375 -0.078125 C 0.828125 -0.078125 0.65625 -0.078125 0.515625 -0.171875 C 0.6875 -0.203125 0.84375 -0.34375 0.84375 -0.546875 C 0.84375 -0.734375 0.6875 -0.78125 0.578125 -0.78125 C 0.375 -0.78125 0.203125 -0.609375 0.203125 -0.375 C 0.203125 -0.0625 0.546875 0.078125 0.859375 0.078125 C 1.3125 0.078125 1.5625 -0.40625 1.578125 -0.453125 C 1.671875 -0.1875 1.921875 0.078125 2.34375 0.078125 C 3.046875 0.078125 3.453125 -0.828125 3.453125 -1 C 3.453125 -1.0625 3.390625 -1.0625 3.359375 -1.0625 C 3.296875 -1.0625 3.28125 -1.03125 3.28125 -0.984375 C 3.046875 -0.25 2.578125 -0.078125 2.34375 -0.078125 C 2.078125 -0.078125 1.96875 -0.296875 1.96875 -0.53125 C 1.96875 -0.6875 2.015625 -0.84375 2.09375 -1.140625 Z M 2.328125 -2.09375 " />
</symbol>
<symbol overflow="visible" id="glyph3-0">
<path style="stroke:none;" d="" />
</symbol>
<symbol overflow="visible" id="glyph3-1">
<path style="stroke:none;" d="M 4.546875 1.9375 C 4.078125 2.59375 3.40625 3.1875 2.5625 3.1875 C 2.34375 3.1875 1.515625 3.140625 1.265625 2.34375 C 1.3125 2.375 1.40625 2.375 1.4375 2.375 C 1.953125 2.375 2.296875 1.921875 2.296875 1.515625 C 2.296875 1.125 1.96875 0.984375 1.703125 0.984375 C 1.4375 0.984375 0.828125 1.1875 0.828125 2.046875 C 0.828125 2.921875 1.578125 3.53125 2.5625 3.53125 C 4.28125 3.53125 6.03125 1.9375 6.515625 0.015625 L 8.203125 -6.71875 C 8.21875 -6.8125 8.265625 -6.90625 8.265625 -7.015625 C 8.265625 -7.28125 8.046875 -7.453125 7.796875 -7.453125 C 7.640625 -7.453125 7.28125 -7.375 7.140625 -6.859375 L 5.859375 -1.78125 C 5.765625 -1.46875 5.765625 -1.4375 5.640625 -1.25 C 5.28125 -0.765625 4.71875 -0.171875 3.890625 -0.171875 C 2.921875 -0.171875 2.828125 -1.125 2.828125 -1.59375 C 2.828125 -2.578125 3.296875 -3.90625 3.765625 -5.15625 C 3.953125 -5.65625 4.0625 -5.890625 4.0625 -6.234375 C 4.0625 -6.96875 3.546875 -7.625 2.703125 -7.625 C 1.109375 -7.625 0.46875 -5.109375 0.46875 -4.984375 C 0.46875 -4.90625 0.53125 -4.828125 0.65625 -4.828125 C 0.8125 -4.828125 0.828125 -4.890625 0.90625 -5.125 C 1.3125 -6.578125 1.96875 -7.28125 2.640625 -7.28125 C 2.796875 -7.28125 3.09375 -7.28125 3.09375 -6.703125 C 3.09375 -6.25 2.90625 -5.75 2.640625 -5.09375 C 1.796875 -2.828125 1.796875 -2.265625 1.796875 -1.84375 C 1.796875 -0.203125 2.96875 0.171875 3.84375 0.171875 C 4.34375 0.171875 4.953125 0.015625 5.5625 -0.625 L 5.578125 -0.609375 C 5.328125 0.421875 5.15625 1.09375 4.546875 1.9375 Z M 4.546875 1.9375 " />
</symbol>
<symbol overflow="visible" id="glyph3-2">
<path style="stroke:none;" d="M 8.1875 -7.046875 C 7.640625 -6.953125 7.4375 -6.53125 7.4375 -6.203125 C 7.4375 -5.796875 7.765625 -5.65625 8 -5.65625 C 8.515625 -5.65625 8.875 -6.09375 8.875 -6.5625 C 8.875 -7.296875 8.046875 -7.625 7.328125 -7.625 C 6.265625 -7.625 5.6875 -6.578125 5.53125 -6.25 C 5.125 -7.546875 4.0625 -7.625 3.75 -7.625 C 1.984375 -7.625 1.046875 -5.359375 1.046875 -4.984375 C 1.046875 -4.90625 1.125 -4.828125 1.25 -4.828125 C 1.375 -4.828125 1.421875 -4.921875 1.453125 -5 C 2.046875 -6.90625 3.203125 -7.28125 3.703125 -7.28125 C 4.46875 -7.28125 4.625 -6.546875 4.625 -6.140625 C 4.625 -5.75 4.53125 -5.359375 4.328125 -4.53125 L 3.734375 -2.15625 C 3.46875 -1.125 2.96875 -0.171875 2.0625 -0.171875 C 1.96875 -0.171875 1.53125 -0.171875 1.171875 -0.390625 C 1.796875 -0.515625 1.9375 -1.03125 1.9375 -1.25 C 1.9375 -1.59375 1.671875 -1.796875 1.34375 -1.796875 C 0.9375 -1.796875 0.484375 -1.4375 0.484375 -0.875 C 0.484375 -0.15625 1.296875 0.171875 2.046875 0.171875 C 2.875 0.171875 3.453125 -0.484375 3.8125 -1.1875 C 4.09375 -0.171875 4.953125 0.171875 5.59375 0.171875 C 7.359375 0.171875 8.296875 -2.09375 8.296875 -2.46875 C 8.296875 -2.5625 8.21875 -2.625 8.125 -2.625 C 7.96875 -2.625 7.953125 -2.546875 7.890625 -2.40625 C 7.4375 -0.875 6.421875 -0.171875 5.65625 -0.171875 C 5.046875 -0.171875 4.71875 -0.625 4.71875 -1.328125 C 4.71875 -1.703125 4.78125 -1.984375 5.0625 -3.125 L 5.671875 -5.484375 C 5.921875 -6.515625 6.515625 -7.28125 7.3125 -7.28125 C 7.34375 -7.28125 7.828125 -7.28125 8.1875 -7.046875 Z M 8.1875 -7.046875 " />
</symbol>
<symbol overflow="visible" id="glyph4-0">
<path style="stroke:none;" d="" />
</symbol>
<symbol overflow="visible" id="glyph4-1">
<path style="stroke:none;" d="M 6 -2.234375 L 5.75 -2.234375 C 5.609375 -1.203125 5.484375 -1.03125 5.4375 -0.953125 C 5.359375 -0.828125 4.328125 -0.828125 4.125 -0.828125 L 1.359375 -0.828125 C 1.875 -1.390625 2.875 -2.421875 4.109375 -3.59375 C 4.984375 -4.4375 6 -5.421875 6 -6.84375 C 6 -8.546875 4.65625 -9.515625 3.140625 -9.515625 C 1.5625 -9.515625 0.59375 -8.125 0.59375 -6.828125 C 0.59375 -6.265625 1.015625 -6.1875 1.1875 -6.1875 C 1.328125 -6.1875 1.75 -6.28125 1.75 -6.78125 C 1.75 -7.234375 1.390625 -7.359375 1.1875 -7.359375 C 1.09375 -7.359375 1.015625 -7.34375 0.953125 -7.3125 C 1.21875 -8.546875 2.0625 -9.140625 2.9375 -9.140625 C 4.1875 -9.140625 5.015625 -8.15625 5.015625 -6.84375 C 5.015625 -5.59375 4.28125 -4.515625 3.453125 -3.578125 L 0.59375 -0.328125 L 0.59375 0 L 5.65625 0 Z M 6 -2.234375 " />
</symbol>
<symbol overflow="visible" id="glyph4-2">
<path style="stroke:none;" d="M 3.1875 -4.890625 C 4.46875 -4.890625 5.03125 -3.78125 5.03125 -2.5 C 5.03125 -0.78125 4.109375 -0.109375 3.265625 -0.109375 C 2.5 -0.109375 1.265625 -0.484375 0.875 -1.59375 C 0.953125 -1.5625 1.015625 -1.5625 1.09375 -1.5625 C 1.4375 -1.5625 1.703125 -1.796875 1.703125 -2.171875 C 1.703125 -2.59375 1.390625 -2.78125 1.09375 -2.78125 C 0.84375 -2.78125 0.46875 -2.671875 0.46875 -2.125 C 0.46875 -0.8125 1.765625 0.234375 3.296875 0.234375 C 4.890625 0.234375 6.125 -1.015625 6.125 -2.5 C 6.125 -3.890625 4.96875 -4.890625 3.59375 -5.0625 C 4.703125 -5.28125 5.75 -6.265625 5.75 -7.578125 C 5.75 -8.703125 4.609375 -9.515625 3.3125 -9.515625 C 2 -9.515625 0.84375 -8.71875 0.84375 -7.5625 C 0.84375 -7.0625 1.21875 -6.96875 1.40625 -6.96875 C 1.71875 -6.96875 1.96875 -7.15625 1.96875 -7.53125 C 1.96875 -7.90625 1.71875 -8.09375 1.40625 -8.09375 C 1.359375 -8.09375 1.28125 -8.09375 1.21875 -8.0625 C 1.640625 -9.015625 2.78125 -9.1875 3.28125 -9.1875 C 3.78125 -9.1875 4.734375 -8.953125 4.734375 -7.5625 C 4.734375 -7.15625 4.6875 -6.4375 4.1875 -5.8125 C 3.765625 -5.25 3.265625 -5.21875 2.796875 -5.171875 C 2.71875 -5.171875 2.390625 -5.140625 2.328125 -5.140625 C 2.234375 -5.125 2.171875 -5.109375 2.171875 -5.015625 C 2.171875 -4.90625 2.1875 -4.890625 2.484375 -4.890625 Z M 3.1875 -4.890625 " />
</symbol>
<symbol overflow="visible" id="glyph5-0">
<path style="stroke:none;" d="" />
</symbol>
<symbol overflow="visible" id="glyph5-1">
<path style="stroke:none;" d="M 11.109375 -5.546875 C 11.375 -5.546875 11.625 -5.546875 11.625 -5.84375 C 11.625 -6.15625 11.34375 -6.15625 11.046875 -6.15625 L 1.375 -6.15625 C 1.09375 -6.15625 0.796875 -6.15625 0.796875 -5.84375 C 0.796875 -5.546875 1.046875 -5.546875 1.3125 -5.546875 Z M 11.046875 -2.46875 C 11.34375 -2.46875 11.625 -2.46875 11.625 -2.78125 C 11.625 -3.078125 11.375 -3.078125 11.109375 -3.078125 L 1.3125 -3.078125 C 1.046875 -3.078125 0.796875 -3.078125 0.796875 -2.78125 C 0.796875 -2.46875 1.09375 -2.46875 1.375 -2.46875 Z M 11.046875 -2.46875 " />
</symbol>
</g>
<clipPath id="clip1">
  <path d="M 84 39.996094 L 140 39.996094 L 140 186.660156 L 84 186.660156 Z M 84 39.996094 " />
</clipPath>
</defs>
<g id="surface1">
<g clip-path="url(#clip1)" clip-rule="nonzero">
<path style="fill:none;stroke-width:0.79701;stroke-linecap:butt;stroke-linejoin:miter;stroke:rgb(100%,100%,100%);stroke-opacity:1;stroke-miterlimit:10;" d="M 160.248119 7.398009 L 160.61216 6.440301 L 160.651365 6.339489 L 161.043409 5.28097 L 161.435453 4.228051 L 161.67068 3.60638 L 161.827498 3.169531 L 162.219542 2.111011 L 162.611586 1.058092 L 162.7292 0.744457 L 162.99803 -0.000427332 M 127.870858 79.248533 L 128.475727 78.195614 L 128.912576 77.45073 L 129.086196 77.137094 L 129.679863 76.078574 L 129.971096 75.585719 L 130.27353 75.025655 L 130.861596 73.967136 L 131.029615 73.681503 L 131.432861 72.908616 L 132.015327 71.855697 L 132.082534 71.732483 L 132.57539 70.797177 L 133.141054 69.744258 L 133.141054 69.738658 L 133.689916 68.685739 L 134.199574 67.72243 L 134.244379 67.627219 L 134.78204 66.568699 L 135.252493 65.666997 L 135.325301 65.51578 L 135.857361 64.457261 L 136.311013 63.56676 L 136.389421 63.398741 L 136.91028 62.345822 L 137.369532 61.438519 L 137.43674 61.287302 L 137.946397 60.228782 L 138.422451 59.271074 L 138.467256 59.175863 L 138.971313 58.117344 L 139.480971 57.064425 L 139.480971 57.058824 L 139.979427 56.005905 L 140.539491 54.829772 L 140.970739 53.888866 L 141.463595 52.835947 L 141.59241 52.561516 L 141.95085 51.777427 L 142.432505 50.718907 L 142.650929 50.259655 L 142.914159 49.665988 L 143.395814 48.607468 L 143.709449 47.924191 L 143.871867 47.548949 L 144.342321 46.49603 L 144.762368 45.555123 L 144.812774 45.43751 L 145.277626 44.37899 L 145.74808 43.326071 L 145.820888 43.158052 L 146.201731 42.267552 L 146.660983 41.209032 L 146.879407 40.727378 L 147.120235 40.156113 L 147.573886 39.097593 L 147.932327 38.263099 L 148.027537 38.039074 L 148.469987 36.986155 L 148.990846 35.770817 L 149.366089 34.869115 L 149.808539 33.816196 L 150.049366 33.250532 L 150.250989 32.757676 L 150.682237 31.699157 L 151.102285 30.696643 L 151.124687 30.646238 L 151.987185 28.529198 L 152.160805 28.114751 L 152.418434 27.470679 L 152.844082 26.41776 L 153.219324 25.504856 L 153.275331 25.35924 L 153.695378 24.30072 L 154.121026 23.247801 L 154.272243 22.866958 L 154.535473 22.189282 L 154.955521 21.130762 L 155.330763 20.195456 L 155.375568 20.077843 L 156.204462 17.960803 L 156.389283 17.501552 L 156.613308 16.907884 L 157.022154 15.849365 L 157.436601 14.790845 L 157.442202 14.774043 L 157.839847 13.737926 L 158.243092 12.679406 L 158.500721 12.024132 L 158.651939 11.620887 L 159.049583 10.567968 L 159.452829 9.509448 L 159.559241 9.246218 L 159.850474 8.450928 L 160.248119 7.398009 M 131.432861 137.366304 L 131.029615 136.599017 L 130.861596 136.307784 L 130.27353 135.254865 L 129.971096 134.694802 L 129.679863 134.196346 L 129.086196 133.143426 L 128.912576 132.829791 L 128.470126 132.084907 L 127.870858 131.026387 L 127.859657 131.003985 L 127.232386 129.967867 L 126.801137 129.217383 L 126.605115 128.914948 L 125.966643 127.856429 L 125.742618 127.475586 L 125.311369 126.797909 L 124.689699 125.784194 L 124.661695 125.74499 L 123.972818 124.68647 L 123.631179 124.126407 L 123.28954 123.627951 L 122.600662 122.575032 L 122.572659 122.530227 L 121.878181 121.516512 L 121.51974 120.962049 L 121.144498 120.457992 L 120.461221 119.46108 L 120.416415 119.405073 L 119.637927 118.346553 L 119.402701 117.999314 L 118.848238 117.288034 L 118.349782 116.593555 L 118.041747 116.235115 L 117.291262 115.255004 L 117.218454 115.176595 L 116.350356 114.118075 L 116.232742 113.961258 L 115.443053 113.065156 L 115.179823 112.717917 L 114.496546 112.006637 L 114.121304 111.547385 L 113.499633 110.948117 L 113.062784 110.44406 L 112.446714 109.895198 L 112.009865 109.407943 L 111.309786 108.836678 L 110.951345 108.444634 L 110.072046 107.778159 L 109.892826 107.582136 L 108.839907 106.81485 L 108.621482 106.72524 L 107.781387 106.030761 L 106.790075 105.66672 L 106.790075 104.6082 L 107.781387 104.244159 L 108.627083 103.555281 L 108.839907 103.465671 L 109.892826 102.698384 L 110.072046 102.496761 L 110.951345 101.830286 L 111.309786 101.438242 L 112.009865 100.872578 L 112.446714 100.385323 L 113.062784 99.836461 L 113.505234 99.326803 L 114.121304 98.733136 L 114.496546 98.268283 L 115.179823 97.557003 L 115.443053 97.215364 L 116.232742 96.319263 L 116.355956 96.156845 L 117.224055 95.098325 L 117.291262 95.025517 L 118.041747 94.045406 L 118.349782 93.686965 L 118.848238 92.986886 L 119.402701 92.281206 L 119.637927 91.928367 L 120.416415 90.875447 L 120.461221 90.813841 L 121.150098 89.816928 L 121.51974 89.318471 L 121.878181 88.758408 L 122.572659 87.750294 L 122.600662 87.705489 L 123.28954 86.646969 L 123.631179 86.154114 L 123.978418 85.58845 L 124.661695 84.535531 L 124.689699 84.496326 L 125.311369 83.477011 L 125.742618 82.804935 L 125.966643 82.418491 L 126.610716 81.365572 L 126.801137 81.063138 L 127.237987 80.307053 L 127.859657 79.276536 L 127.870858 79.248533 M 162.99803 210.275347 L 162.7292 209.536064 L 162.611586 209.222428 L 161.827498 207.105389 L 161.67068 206.67414 L 161.435453 206.05247 L 161.037808 204.99395 L 160.651365 203.935431 L 160.61216 203.84022 L 160.248119 202.882512 L 159.850474 201.823992 L 159.559241 201.034303 L 159.452829 200.765472 L 159.049583 199.712553 L 158.651939 198.654033 L 158.500721 198.256388 L 158.243092 197.595514 L 157.839847 196.542595 L 157.442202 195.506478 L 157.436601 195.484075 L 157.022154 194.425555 L 156.613308 193.372636 L 156.389283 192.778969 L 156.204462 192.314117 L 155.784414 191.255597 L 155.375568 190.202678 L 155.330763 190.085065 L 154.955521 189.144158 L 154.535473 188.085639 L 154.272243 187.413563 L 154.121026 187.032719 L 153.695378 185.9742 L 153.275331 184.91568 L 153.219324 184.775664 L 152.844082 183.862761 L 152.418434 182.804241 L 152.160805 182.160169 L 151.987185 181.745722 L 151.555936 180.692803 L 151.124687 179.634283 L 151.102285 179.583877 L 150.682237 178.575763 L 150.245388 177.522844 L 150.049366 177.029989 L 149.808539 176.464325 L 149.366089 175.405805 L 148.990846 174.509704 L 148.469987 173.294366 L 148.027537 172.235846 L 147.932327 172.011821 L 147.573886 171.182927 L 147.120235 170.124408 L 146.879407 169.553143 L 146.660983 169.065888 L 146.201731 168.012969 L 145.820888 167.122468 L 145.742479 166.954449 L 145.277626 165.89593 L 144.812774 164.843011 L 144.762368 164.725397 L 144.33672 163.784491 L 143.871867 162.725971 L 143.709449 162.356329 L 143.390213 161.673052 L 142.914159 160.614532 L 142.650929 160.020865 L 142.432505 159.556013 L 141.94525 158.503094 L 141.59241 157.719005 L 141.463595 157.444574 L 140.970739 156.386054 L 140.539491 155.450749 L 140.477884 155.333135 L 139.973827 154.274616 L 139.480971 153.216096 L 138.971313 152.163177 L 138.467256 151.104657 L 138.422451 151.009447 L 137.946397 150.046138 L 137.43674 148.993219 L 137.369532 148.842001 L 136.91028 147.934699 L 136.389421 146.876179 L 136.311013 146.713761 L 135.851761 145.82326 L 135.325301 144.76474 L 135.252493 144.613523 L 134.78204 143.706221 L 134.244379 142.653302 L 134.199574 142.558091 L 133.684316 141.594782 L 133.141054 140.536262 L 132.56979 139.483343 L 132.082534 138.548038 L 132.015327 138.424824 L 131.432861 137.366304 " transform="matrix(0.697466,0,0,-0.697466,18.333984,186.659858)" />
</g>
<path style="fill:none;stroke-width:0.19925;stroke-linecap:butt;stroke-linejoin:miter;stroke:rgb(100%,100%,100%);stroke-opacity:1;stroke-miterlimit:10;" d="M -0.00279967 103.01202 L -0.00279967 107.268501 M 52.570344 103.01202 L 52.570344 107.268501 M 157.711032 103.01202 L 157.711032 107.268501 M 210.278576 103.01202 L 210.278576 107.268501 " transform="matrix(0.697466,0,0,-0.697466,18.333984,186.659858)" />
<path style="fill:none;stroke-width:0.19925;stroke-linecap:butt;stroke-linejoin:miter;stroke:rgb(100%,100%,100%);stroke-opacity:1;stroke-miterlimit:10;" d="M 103.015248 -0.000427332 L 107.266129 -0.000427332 M 103.015248 52.572717 L 107.266129 52.572717 M 103.015248 157.707804 L 107.266129 157.707804 M 103.015248 210.280948 L 107.266129 210.280948 " transform="matrix(0.697466,0,0,-0.697466,18.333984,186.659858)" />
<path style="fill:none;stroke-width:0.3985;stroke-linecap:butt;stroke-linejoin:miter;stroke:rgb(100%,100%,100%);stroke-opacity:1;stroke-miterlimit:10;" d="M -0.00279967 105.14026 L 208.28475 105.14026 " transform="matrix(0.697466,0,0,-0.697466,18.333984,186.659858)" />
<path style=" stroke:none;fill-rule:nonzero;fill:rgb(100%,100%,100%);fill-opacity:1;" d="M 164.996094 113.328125 L 162.773438 112.214844 L 163.605469 113.328125 L 162.773438 114.441406 " />
<path style="fill:none;stroke-width:0.3985;stroke-linecap:butt;stroke-linejoin:miter;stroke:rgb(100%,100%,100%);stroke-opacity:1;stroke-miterlimit:10;" d="M 105.137888 -0.000427332 L 105.137888 208.287123 " transform="matrix(0.697466,0,0,-0.697466,18.333984,186.659858)" />
<path style=" stroke:none;fill-rule:nonzero;fill:rgb(100%,100%,100%);fill-opacity:1;" d="M 91.664062 39.996094 L 90.554688 42.21875 L 91.664062 41.386719 L 92.777344 42.21875 " />
<g style="fill:rgb(100%,100%,100%);fill-opacity:1;">
  <use xlink:href="#glyph0-1" x="14.228003" y="121.296853" />
</g>
<g style="fill:rgb(100%,100%,100%);fill-opacity:1;">
  <use xlink:href="#glyph1-1" x="19.227256" y="121.296853" />
</g>
<g style="fill:rgb(100%,100%,100%);fill-opacity:1;">
  <use xlink:href="#glyph0-1" x="50.893081" y="121.296853" />
</g>
<g style="fill:rgb(100%,100%,100%);fill-opacity:1;">
  <use xlink:href="#glyph1-2" x="55.892335" y="121.296853" />
</g>
<g style="fill:rgb(100%,100%,100%);fill-opacity:1;">
  <use xlink:href="#glyph1-2" x="126.722955" y="121.296853" />
</g>
<g style="fill:rgb(100%,100%,100%);fill-opacity:1;">
  <use xlink:href="#glyph1-1" x="163.388731" y="121.296853" />
</g>
<g style="fill:rgb(100%,100%,100%);fill-opacity:1;">
  <use xlink:href="#glyph0-1" x="79.514287" y="188.385389" />
</g>
<g style="fill:rgb(100%,100%,100%);fill-opacity:1;">
  <use xlink:href="#glyph1-1" x="84.51354" y="188.385389" />
</g>
<g style="fill:rgb(100%,100%,100%);fill-opacity:1;">
  <use xlink:href="#glyph0-1" x="79.514287" y="151.72031" />
</g>
<g style="fill:rgb(100%,100%,100%);fill-opacity:1;">
  <use xlink:href="#glyph1-2" x="84.51354" y="151.72031" />
</g>
<g style="fill:rgb(100%,100%,100%);fill-opacity:1;">
  <use xlink:href="#glyph1-2" x="84.513024" y="78.678904" />
</g>
<g style="fill:rgb(100%,100%,100%);fill-opacity:1;">
  <use xlink:href="#glyph1-1" x="84.513024" y="42.013826" />
</g>
<g style="fill:rgb(100%,100%,100%);fill-opacity:1;">
  <use xlink:href="#glyph2-1" x="167.450074" y="114.825068" />
</g>
<g style="fill:rgb(100%,100%,100%);fill-opacity:1;">
  <use xlink:href="#glyph3-1" x="64.436472" y="30.01323" />
</g>
<g style="fill:rgb(100%,100%,100%);fill-opacity:1;">
  <use xlink:href="#glyph4-1" x="73.311026" y="23.739525" />
</g>
<g style="fill:rgb(100%,100%,100%);fill-opacity:1;">
  <use xlink:href="#glyph5-1" x="85.069602" y="30.01323" />
</g>
<g style="fill:rgb(100%,100%,100%);fill-opacity:1;">
  <use xlink:href="#glyph3-2" x="102.319722" y="30.01323" />
</g>
<g style="fill:rgb(100%,100%,100%);fill-opacity:1;">
  <use xlink:href="#glyph4-2" x="111.935983" y="23.739525" />
</g>
</g>
</svg>