<?xml version='1.0' encoding='utf-8'?>
<svg xmlns="http://www.w3.org/2000/svg" xmlns:xlink="http://www.w3.org/1999/xlink" width="186.323pt" height="203.707pt" viewBox="0 0 186.323 203.707" version="1.2">
<defs>
<g>
<symbol overflow="visible" id="glyph0-0">
<path style="stroke:none;" d="" />
</symbol>
<symbol overflow="visible" id="glyph0-1">
<path style="stroke:none;" d="M 4.21875 -1.4375 C 4.328125 -1.4375 4.453125 -1.4375 4.453125 -1.5625 C 4.453125 -1.703125 4.328125 -1.703125 4.21875 -1.703125 L 0.765625 -1.703125 C 0.65625 -1.703125 0.53125 -1.703125 0.53125 -1.5625 C 0.53125 -1.4375 0.65625 -1.4375 0.765625 -1.4375 Z M 4.21875 -1.4375 " />
</symbol>
<symbol overflow="visible" id="glyph1-0">
<path style="stroke:none;" d="" />
</symbol>
<symbol overflow="visible" id="glyph1-1">
<path style="stroke:none;" d="M 0.84375 -2.0625 C 0.84375 -2.703125 0.90625 -3.0625 1.078125 -3.390625 C 1.203125 -3.640625 1.5 -4 1.96875 -4 C 2.09375 -4 2.375 -3.984375 2.53125 -3.75 C 2.296875 -3.75 2.1875 -3.640625 2.1875 -3.46875 C 2.1875 -3.3125 2.3125 -3.1875 2.484375 -3.1875 C 2.65625 -3.1875 2.78125 -3.296875 2.78125 -3.484375 C 2.78125 -3.828125 2.53125 -4.15625 1.953125 -4.15625 C 1.15625 -4.15625 0.265625 -3.375 0.265625 -1.96875 C 0.265625 -0.28125 1.03125 0.140625 1.625 0.140625 C 2.3125 0.140625 2.9375 -0.4375 2.9375 -1.265625 C 2.9375 -2.0625 2.359375 -2.65625 1.65625 -2.65625 C 1.28125 -2.65625 1.015625 -2.4375 0.84375 -2.0625 Z M 1.609375 -0.03125 C 1.25 -0.03125 1.046875 -0.328125 0.96875 -0.515625 C 0.859375 -0.796875 0.84375 -1.3125 0.84375 -1.40625 C 0.84375 -1.828125 1.046875 -2.5 1.640625 -2.5 C 1.75 -2.5 2.046875 -2.5 2.25 -2.125 C 2.375 -1.875 2.375 -1.578125 2.375 -1.28125 C 2.375 -0.96875 2.375 -0.671875 2.25 -0.4375 C 2.0625 -0.078125 1.78125 -0.03125 1.609375 -0.03125 Z M 1.609375 -0.03125 " />
</symbol>
<symbol overflow="visible" id="glyph1-2">
<path style="stroke:none;" d="M 1.90625 -2.203125 C 2.484375 -2.421875 2.765625 -2.875 2.765625 -3.3125 C 2.765625 -3.78125 2.234375 -4.15625 1.578125 -4.15625 C 0.9375 -4.15625 0.4375 -3.796875 0.4375 -3.3125 C 0.4375 -3.109375 0.578125 -3 0.765625 -3 C 0.9375 -3 1.078125 -3.125 1.078125 -3.3125 C 1.078125 -3.53125 0.921875 -3.625 0.71875 -3.625 C 0.875 -3.875 1.25 -4 1.5625 -4 C 2.078125 -4 2.1875 -3.59375 2.1875 -3.296875 C 2.1875 -3.109375 2.140625 -2.8125 1.984375 -2.578125 C 1.796875 -2.296875 1.578125 -2.28125 1.390625 -2.265625 C 1.234375 -2.25 1.21875 -2.25 1.171875 -2.25 C 1.125 -2.25 1.0625 -2.25 1.0625 -2.171875 C 1.0625 -2.09375 1.125 -2.09375 1.21875 -2.09375 L 1.515625 -2.09375 C 2.0625 -2.09375 2.296875 -1.65625 2.296875 -1.0625 C 2.296875 -0.265625 1.875 -0.03125 1.5625 -0.03125 C 1.4375 -0.03125 0.828125 -0.0625 0.546875 -0.53125 C 0.78125 -0.5 0.953125 -0.65625 0.953125 -0.875 C 0.953125 -1.078125 0.796875 -1.203125 0.609375 -1.203125 C 0.453125 -1.203125 0.265625 -1.109375 0.265625 -0.84375 C 0.265625 -0.296875 0.84375 0.140625 1.578125 0.140625 C 2.359375 0.140625 2.9375 -0.421875 2.9375 -1.0625 C 2.9375 -1.609375 2.5 -2.0625 1.90625 -2.203125 Z M 1.90625 -2.203125 " />
</symbol>
<symbol overflow="visible" id="glyph2-0">
<path style="stroke:none;" d="" />
</symbol>
<symbol overflow="visible" id="glyph2-1">
<path style="stroke:none;" d="M 2.328125 -2.09375 C 2.359375 -2.28125 2.53125 -2.921875 3.015625 -2.921875 C 3.046875 -2.921875 3.21875 -2.921875 3.359375 -2.828125 C 3.15625 -2.796875 3.03125 -2.625 3.03125 -2.453125 C 3.03125 -2.34375 3.09375 -2.21875 3.28125 -2.21875 C 3.4375 -2.21875 3.671875 -2.34375 3.671875 -2.609375 C 3.671875 -2.96875 3.25 -3.078125 3.015625 -3.078125 C 2.609375 -3.078125 2.375 -2.703125 2.28125 -2.546875 C 2.109375 -3 1.734375 -3.078125 1.53125 -3.078125 C 0.8125 -3.078125 0.421875 -2.171875 0.421875 -2 C 0.421875 -1.9375 0.484375 -1.9375 0.5 -1.9375 C 0.5625 -1.9375 0.578125 -1.953125 0.59375 -2.015625 C 0.828125 -2.75 1.28125 -2.921875 1.515625 -2.921875 C 1.65625 -2.921875 1.890625 -2.859375 1.890625 -2.453125 C 1.890625 -2.234375 1.78125 -1.765625 1.515625 -0.796875 C 1.40625 -0.375 1.171875 -0.078125 0.859375 -0.078125 C 0.828125 -0.078125 0.65625 -0.078125 0.515625 -0.171875 C 0.6875 -0.203125 0.84375 -0.34375 0.84375 -0.546875 C 0.84375 -0.734375 0.6875 -0.78125 0.578125 -0.78125 C 0.375 -0.78125 0.203125 -0.609375 0.203125 -0.375 C 0.203125 -0.0625 0.546875 0.078125 0.859375 0.078125 C 1.3125 0.078125 1.5625 -0.40625 1.578125 -0.453125 C 1.671875 -0.1875 1.921875 0.078125 2.34375 0.078125 C 3.046875 0.078125 3.453125 -0.828125 3.453125 -1 C 3.453125 -1.0625 3.390625 -1.0625 3.359375 -1.0625 C 3.296875 -1.0625 3.28125 -1.03125 3.28125 -0.984375 C 3.046875 -0.25 2.578125 -0.078125 2.34375 -0.078125 C 2.078125 -0.078125 1.96875 -0.296875 1.96875 -0.53125 C 1.96875 -0.6875 2.015625 -0.84375 2.09375 -1.140625 Z M 2.328125 -2.09375 " />
</symbol>
<symbol overflow="visible" id="glyph3-0">
<path style="stroke:none;" d="" />
</symbol>
<symbol overflow="visible" id="glyph3-1">
<path style="stroke:none;" d="M 4.546875 1.9375 C 4.078125 2.59375 3.40625 3.1875 2.5625 3.1875 C 2.34375 3.1875 1.515625 3.140625 1.265625 2.34375 C 1.3125 2.375 1.40625 2.375 1.4375 2.375 C 1.953125 2.375 2.296875 1.921875 2.296875 1.515625 C 2.296875 1.125 1.96875 0.984375 1.703125 0.984375 C 1.4375 0.984375 0.828125 1.1875 0.828125 2.046875 C 0.828125 2.921875 1.578125 3.53125 2.5625 3.53125 C 4.28125 3.53125 6.03125 1.9375 6.515625 0.015625 L 8.203125 -6.71875 C 8.21875 -6.8125 8.265625 -6.90625 8.265625 -7.015625 C 8.265625 -7.28125 8.046875 -7.453125 7.796875 -7.453125 C 7.640625 -7.453125 7.28125 -7.375 7.140625 -6.859375 L 5.859375 -1.78125 C 5.765625 -1.46875 5.765625 -1.4375 5.640625 -1.25 C 5.28125 -0.765625 4.71875 -0.171875 3.890625 -0.171875 C 2.921875 -0.171875 2.828125 -1.125 2.828125 -1.59375 C 2.828125 -2.578125 3.296875 -3.90625 3.765625 -5.15625 C 3.953125 -5.65625 4.0625 -5.890625 4.0625 -6.234375 C 4.0625 -6.96875 3.546875 -7.625 2.703125 -7.625 C 1.109375 -7.625 0.46875 -5.109375 0.46875 -4.984375 C 0.46875 -4.90625 0.53125 -4.828125 0.65625 -4.828125 C 0.8125 -4.828125 0.828125 -4.890625 0.90625 -5.125 C 1.3125 -6.578125 1.96875 -7.28125 2.640625 -7.28125 C 2.796875 -7.28125 3.09375 -7.28125 3.09375 -6.703125 C 3.09375 -6.25 2.90625 -5.75 2.640625 -5.09375 C 1.796875 -2.828125 1.796875 -2.265625 1.796875 -1.84375 C 1.796875 -0.203125 2.96875 0.171875 3.84375 0.171875 C 4.34375 0.171875 4.953125 0.015625 5.5625 -0.625 L 5.578125 -0.609375 C 5.328125 0.421875 5.15625 1.09375 4.546875 1.9375 Z M 4.546875 1.9375 " />
</symbol>
<symbol overflow="visible" id="glyph3-2">
<path style="stroke:none;" d="M 8.1875 -7.046875 C 7.640625 -6.953125 7.4375 -6.53125 7.4375 -6.203125 C 7.4375 -5.796875 7.765625 -5.65625 8 -5.65625 C 8.515625 -5.65625 8.875 -6.09375 8.875 -6.5625 C 8.875 -7.296875 8.046875 -7.625 7.328125 -7.625 C 6.265625 -7.625 5.6875 -6.578125 5.53125 -6.25 C 5.125 -7.546875 4.0625 -7.625 3.75 -7.625 C 1.984375 -7.625 1.046875 -5.359375 1.046875 -4.984375 C 1.046875 -4.90625 1.125 -4.828125 1.25 -4.828125 C 1.375 -4.828125 1.421875 -4.921875 1.453125 -5 C 2.046875 -6.90625 3.203125 -7.28125 3.703125 -7.28125 C 4.46875 -7.28125 4.625 -6.546875 4.625 -6.140625 C 4.625 -5.75 4.53125 -5.359375 4.328125 -4.53125 L 3.734375 -2.15625 C 3.46875 -1.125 2.96875 -0.171875 2.0625 -0.171875 C 1.96875 -0.171875 1.53125 -0.171875 1.171875 -0.390625 C 1.796875 -0.515625 1.9375 -1.03125 1.9375 -1.25 C 1.9375 -1.59375 1.671875 -1.796875 1.34375 -1.796875 C 0.9375 -1.796875 0.484375 -1.4375 0.484375 -0.875 C 0.484375 -0.15625 1.296875 0.171875 2.046875 0.171875 C 2.875 0.171875 3.453125 -0.484375 3.8125 -1.1875 C 4.09375 -0.171875 4.953125 0.171875 5.59375 0.171875 C 7.359375 0.171875 8.296875 -2.09375 8.296875 -2.46875 C 8.296875 -2.5625 8.21875 -2.625 8.125 -2.625 C 7.96875 -2.625 7.953125 -2.546875 7.890625 -2.40625 C 7.4375 -0.875 6.421875 -0.171875 5.65625 -0.171875 C 5.046875 -0.171875 4.71875 -0.625 4.71875 -1.328125 C 4.71875 -1.703125 4.78125 -1.984375 5.0625 -3.125 L 5.671875 -5.484375 C 5.921875 -6.515625 6.515625 -7.28125 7.3125 -7.28125 C 7.34375 -7.28125 7.828125 -7.28125 8.1875 -7.046875 Z M 8.1875 -7.046875 " />
</symbol>
<symbol overflow="visible" id="glyph4-0">
<path style="stroke:none;" d="" />
</symbol>
<symbol overflow="visible" id="glyph4-1">
<path style="stroke:none;" d="M 6 -2.234375 L 5.75 -2.234375 C 5.609375 -1.203125 5.484375 -1.03125 5.4375 -0.953125 C 5.359375 -0.828125 4.328125 -0.828125 4.125 -0.828125 L 1.359375 -0.828125 C 1.875 -1.390625 2.875 -2.421875 4.109375 -3.59375 C 4.984375 -4.4375 6 -5.421875 6 -6.84375 C 6 -8.546875 4.65625 -9.515625 3.140625 -9.515625 C 1.5625 -9.515625 0.59375 -8.125 0.59375 -6.828125 C 0.59375 -6.265625 1.015625 -6.1875 1.1875 -6.1875 C 1.328125 -6.1875 1.75 -6.28125 1.75 -6.78125 C 1.75 -7.234375 1.390625 -7.359375 1.1875 -7.359375 C 1.09375 -7.359375 1.015625 -7.34375 0.953125 -7.3125 C 1.21875 -8.546875 2.0625 -9.140625 2.9375 -9.140625 C 4.1875 -9.140625 5.015625 -8.15625 5.015625 -6.84375 C 5.015625 -5.59375 4.28125 -4.515625 3.453125 -3.578125 L 0.59375 -0.328125 L 0.59375 0 L 5.65625 0 Z M 6 -2.234375 " />
</symbol>
<symbol overflow="visible" id="glyph4-2">
<path style="stroke:none;" d="M 3.1875 -4.890625 C 4.46875 -4.890625 5.03125 -3.78125 5.03125 -2.5 C 5.03125 -0.78125 4.109375 -0.109375 3.265625 -0.109375 C 2.5 -0.109375 1.265625 -0.484375 0.875 -1.59375 C 0.953125 -1.5625 1.015625 -1.5625 1.09375 -1.5625 C 1.4375 -1.5625 1.703125 -1.796875 1.703125 -2.171875 C 1.703125 -2.59375 1.390625 -2.78125 1.09375 -2.78125 C 0.84375 -2.78125 0.46875 -2.671875 0.46875 -2.125 C 0.46875 -0.8125 1.765625 0.234375 3.296875 0.234375 C 4.890625 0.234375 6.125 -1.015625 6.125 -2.5 C 6.125 -3.890625 4.96875 -4.890625 3.59375 -5.0625 C 4.703125 -5.28125 5.75 -6.265625 5.75 -7.578125 C 5.75 -8.703125 4.609375 -9.515625 3.3125 -9.515625 C 2 -9.515625 0.84375 -8.71875 0.84375 -7.5625 C 0.84375 -7.0625 1.21875 -6.96875 1.40625 -6.96875 C 1.71875 -6.96875 1.96875 -7.15625 1.96875 -7.53125 C 1.96875 -7.90625 1.71875 -8.09375 1.40625 -8.09375 C 1.359375 -8.09375 1.28125 -8.09375 1.21875 -8.0625 C 1.640625 -9.015625 2.78125 -9.1875 3.28125 -9.1875 C 3.78125 -9.1875 4.734375 -8.953125 4.734375 -7.5625 C 4.734375 -7.15625 4.6875 -6.4375 4.1875 -5.8125 C 3.765625 -5.25 3.265625 -5.21875 2.796875 -5.171875 C 2.71875 -5.171875 2.390625 -5.140625 2.328125 -5.140625 C 2.234375 -5.125 2.171875 -5.109375 2.171875 -5.015625 C 2.171875 -4.90625 2.1875 -4.890625 2.484375 -4.890625 Z M 3.1875 -4.890625 " />
</symbol>
<symbol overflow="visible" id="glyph5-0">
<path style="stroke:none;" d="" />
</symbol>
<symbol overflow="visible" id="glyph5-1">
<path style="stroke:none;" d="M 11.109375 -5.546875 C 11.375 -5.546875 11.625 -5.546875 11.625 -5.84375 C 11.625 -6.15625 11.34375 -6.15625 11.046875 -6.15625 L 1.375 -6.15625 C 1.09375 -6.15625 0.796875 -6.15625 0.796875 -5.84375 C 0.796875 -5.546875 1.046875 -5.546875 1.3125 -5.546875 Z M 11.046875 -2.46875 C 11.34375 -2.46875 11.625 -2.46875 11.625 -2.78125 C 11.625 -3.078125 11.375 -3.078125 11.109375 -3.078125 L 1.3125 -3.078125 C 1.046875 -3.078125 0.796875 -3.078125 0.796875 -2.78125 C 0.796875 -2.46875 1.09375 -2.46875 1.375 -2.46875 Z M 11.046875 -2.46875 " />
</symbol>
<symbol overflow="visible" id="glyph5-2">
<path style="stroke:none;" d="M 7.203125 -2.671875 L 6.890625 -2.671875 C 6.71875 -1.453125 6.578125 -1.25 6.515625 -1.140625 C 6.421875 -1 5.1875 -1 4.9375 -1 L 1.625 -1 C 2.25 -1.671875 3.453125 -2.90625 4.921875 -4.328125 C 5.984375 -5.328125 7.203125 -6.5 7.203125 -8.203125 C 7.203125 -10.25 5.578125 -11.421875 3.765625 -11.421875 C 1.859375 -11.421875 0.703125 -9.75 0.703125 -8.1875 C 0.703125 -7.515625 1.203125 -7.4375 1.421875 -7.4375 C 1.59375 -7.4375 2.109375 -7.53125 2.109375 -8.140625 C 2.109375 -8.671875 1.65625 -8.828125 1.421875 -8.828125 C 1.3125 -8.828125 1.203125 -8.8125 1.140625 -8.78125 C 1.46875 -10.25 2.46875 -10.96875 3.53125 -10.96875 C 5.03125 -10.96875 6.015625 -9.78125 6.015625 -8.203125 C 6.015625 -6.703125 5.125 -5.40625 4.140625 -4.28125 L 0.703125 -0.390625 L 0.703125 0 L 6.796875 0 Z M 7.203125 -2.671875 " />
</symbol>
<symbol overflow="visible" id="glyph5-3">
<path style="stroke:none;" d="M 7.796875 -10.765625 L 7.796875 -11.140625 L 3.734375 -11.140625 C 1.703125 -11.140625 1.671875 -11.375 1.609375 -11.703125 L 1.296875 -11.703125 L 0.796875 -8.46875 L 1.109375 -8.46875 C 1.15625 -8.796875 1.28125 -9.671875 1.484375 -10 C 1.59375 -10.140625 2.875 -10.140625 3.15625 -10.140625 L 6.96875 -10.140625 L 5.046875 -7.296875 C 3.765625 -5.375 2.890625 -2.78125 2.890625 -0.515625 C 2.890625 -0.3125 2.890625 0.28125 3.515625 0.28125 C 4.125 0.28125 4.125 -0.3125 4.125 -0.53125 L 4.125 -1.328125 C 4.125 -4.171875 4.609375 -6.03125 5.40625 -7.21875 Z M 7.796875 -10.765625 " />
</symbol>
<symbol overflow="visible" id="glyph5-4">
<path style="stroke:none;" d="M 6.515625 -4.015625 L 11.09375 -4.015625 C 11.34375 -4.015625 11.625 -4.015625 11.625 -4.296875 C 11.625 -4.609375 11.359375 -4.609375 11.09375 -4.609375 L 6.515625 -4.609375 L 6.515625 -9.1875 C 6.515625 -9.4375 6.515625 -9.734375 6.21875 -9.734375 C 5.90625 -9.734375 5.90625 -9.453125 5.90625 -9.1875 L 5.90625 -4.609375 L 1.328125 -4.609375 C 1.09375 -4.609375 0.796875 -4.609375 0.796875 -4.328125 C 0.796875 -4.015625 1.078125 -4.015625 1.328125 -4.015625 L 5.90625 -4.015625 L 5.90625 0.5625 C 5.90625 0.8125 5.90625 1.109375 6.203125 1.109375 C 6.515625 1.109375 6.515625 0.828125 6.515625 0.5625 Z M 6.515625 -4.015625 " />
</symbol>
<symbol overflow="visible" id="glyph5-5">
<path style="stroke:none;" d="M 1.96875 -10.109375 C 2.140625 -10.046875 2.84375 -9.8125 3.578125 -9.8125 C 5.1875 -9.8125 6.0625 -10.6875 6.5625 -11.1875 C 6.5625 -11.3125 6.5625 -11.40625 6.46875 -11.40625 C 6.453125 -11.40625 6.40625 -11.40625 6.265625 -11.34375 C 5.671875 -11.078125 4.953125 -10.875 4.09375 -10.875 C 3.578125 -10.875 2.796875 -10.9375 1.953125 -11.3125 C 1.765625 -11.40625 1.734375 -11.40625 1.703125 -11.40625 C 1.625 -11.40625 1.609375 -11.390625 1.609375 -11.046875 L 1.609375 -6.03125 C 1.609375 -5.71875 1.609375 -5.640625 1.78125 -5.640625 C 1.859375 -5.640625 1.90625 -5.671875 1.984375 -5.796875 C 2.546875 -6.5625 3.296875 -6.890625 4.171875 -6.890625 C 4.765625 -6.890625 6.0625 -6.515625 6.0625 -3.5625 C 6.0625 -3 6.0625 -2 5.546875 -1.203125 C 5.109375 -0.5 4.4375 -0.140625 3.703125 -0.140625 C 2.5625 -0.140625 1.40625 -0.9375 1.09375 -2.265625 C 1.15625 -2.25 1.296875 -2.21875 1.359375 -2.21875 C 1.59375 -2.21875 2.015625 -2.328125 2.015625 -2.875 C 2.015625 -3.328125 1.6875 -3.53125 1.359375 -3.53125 C 0.96875 -3.53125 0.703125 -3.28125 0.703125 -2.796875 C 0.703125 -1.296875 1.90625 0.28125 3.734375 0.28125 C 5.515625 0.28125 7.203125 -1.265625 7.203125 -3.484375 C 7.203125 -5.5625 5.859375 -7.171875 4.1875 -7.171875 C 3.296875 -7.171875 2.5625 -6.84375 1.96875 -6.21875 Z M 1.96875 -10.109375 " />
</symbol>
<symbol overflow="visible" id="glyph5-6">
<path style="stroke:none;" d="M 5.8125 -11.1875 C 5.8125 -11.546875 5.796875 -11.5625 5.484375 -11.5625 L 0.34375 -3.390625 L 0.34375 -2.9375 L 4.796875 -2.9375 L 4.796875 -1.25 C 4.796875 -0.625 4.765625 -0.453125 3.5625 -0.453125 L 3.234375 -0.453125 L 3.234375 0 C 3.78125 -0.03125 4.71875 -0.03125 5.3125 -0.03125 C 5.890625 -0.03125 6.828125 -0.03125 7.375 0 L 7.375 -0.453125 L 7.046875 -0.453125 C 5.84375 -0.453125 5.8125 -0.625 5.8125 -1.25 L 5.8125 -2.9375 L 7.5625 -2.9375 L 7.5625 -3.390625 L 5.8125 -3.390625 Z M 4.859375 -10.046875 L 4.859375 -3.390625 L 0.6875 -3.390625 Z M 4.859375 -10.046875 " />
</symbol>
<symbol overflow="visible" id="glyph6-0">
<path style="stroke:none;" d="" />
</symbol>
<symbol overflow="visible" id="glyph6-1">
<path style="stroke:none;" d="M 11.390625 -3.96875 C 11.6875 -3.96875 12 -3.96875 12 -4.328125 C 12 -4.671875 11.6875 -4.671875 11.390625 -4.671875 L 2.046875 -4.671875 C 1.75 -4.671875 1.4375 -4.671875 1.4375 -4.328125 C 1.4375 -3.96875 1.75 -3.96875 2.046875 -3.96875 Z M 11.390625 -3.96875 " />
</symbol>
</g>
<clipPath id="clip1">
  <path d="M 18.332031 39.996094 L 159 39.996094 L 159 186.660156 L 18.332031 186.660156 Z M 18.332031 39.996094 " />
</clipPath>
</defs>
<g id="surface1">
<g clip-path="url(#clip1)" clip-rule="nonzero">
<path style="fill:none;stroke-width:0.79701;stroke-linecap:butt;stroke-linejoin:miter;stroke:rgb(100%,100%,100%);stroke-opacity:1;stroke-miterlimit:10;" d="M 173.000761 57.058824 L 173.291994 56.13472 L 173.331198 56.005905 L 173.644834 54.947385 L 173.96407 53.888866 L 174.294507 52.835947 L 174.350513 52.651126 L 174.608143 51.777427 L 174.921778 50.718907 L 175.246615 49.665988 L 175.409033 49.15073 L 175.565851 48.607468 L 175.879486 47.548949 L 176.198722 46.49603 L 176.461952 45.627932 L 176.517959 45.43751 L 176.831594 44.37899 L 177.145229 43.326071 L 177.464466 42.267552 L 177.520472 42.088331 L 177.7725 41.209032 L 178.086136 40.156113 L 178.405372 39.097593 L 178.578992 38.526329 L 178.719007 38.039074 L 179.027042 36.986155 L 179.340678 35.927635 L 179.631911 34.941923 L 179.654313 34.869115 L 179.962348 33.816196 L 180.270383 32.757676 L 180.584018 31.699157 L 180.69043 31.346317 L 180.892053 30.646238 L 181.508123 28.529198 L 181.74895 27.728308 L 181.821758 27.470679 L 182.124192 26.41776 L 182.426627 25.35924 L 182.740262 24.30072 L 182.801869 24.087896 L 183.042696 23.247801 L 183.34513 22.189282 L 183.653165 21.130762 L 183.860389 20.430683 L 184.566068 17.960803 L 184.874103 16.907884 L 184.918908 16.756667 L 185.170937 15.849365 L 185.473371 14.790845 L 185.775805 13.737926 L 185.971827 13.060249 L 186.078239 12.679406 L 186.380674 11.620887 L 186.677507 10.567968 L 186.985542 9.509448 L 187.030347 9.34703 L 187.282376 8.450928 L 187.579209 7.398009 L 187.881643 6.339489 L 188.088867 5.617008 L 188.178477 5.28097 L 188.47531 4.228051 L 188.772144 3.169531 L 189.074578 2.111011 L 189.141786 1.864584 L 189.365811 1.058092 L 189.662645 -0.000427332 M 146.879407 73.782315 L 146.946615 73.967136 L 147.333059 75.025655 L 147.708301 76.078574 L 147.932327 76.739449 L 148.083544 77.137094 L 148.464387 78.195614 L 148.834028 79.248533 L 148.990846 79.718986 L 149.209271 80.307053 L 149.584513 81.365572 L 149.948554 82.418491 L 150.049366 82.720926 L 150.329398 83.477011 L 150.699039 84.535531 L 151.05748 85.58845 L 151.102285 85.745267 L 151.438323 86.646969 L 151.807965 87.705489 L 152.149603 88.758408 L 152.160805 88.786411 L 152.541648 89.816928 L 152.900088 90.875447 L 153.219324 91.861159 L 153.247327 91.928367 L 153.633771 92.986886 L 153.992212 94.045406 L 154.272243 94.952708 L 154.33385 95.098325 L 154.731495 96.156845 L 155.084335 97.215364 L 155.330763 98.066661 L 155.420373 98.268283 L 155.829219 99.326803 L 156.170858 100.385323 L 156.389283 101.214216 L 156.523698 101.438242 L 156.994151 102.496761 L 157.313387 103.555281 L 157.442202 104.440181 L 157.839847 103.555281 L 158.500721 102.810397 L 158.556728 102.496761 L 158.836759 101.438242 L 159.206401 100.385323 L 159.559241 99.584432 L 159.620848 99.326803 L 159.923282 98.268283 L 160.281723 97.215364 L 160.61216 96.358467 L 160.668166 96.156845 L 160.981802 95.098325 L 161.334642 94.045406 L 161.67068 93.115701 L 161.704284 92.986886 L 162.02352 91.928367 L 162.370759 90.875447 L 162.7292 89.850532 L 162.7348 89.816928 L 163.054036 88.758408 L 163.395675 87.705489 L 163.754115 86.646969 L 163.782119 86.574161 L 164.078952 85.58845 L 164.41499 84.535531 L 164.76783 83.477011 L 164.840638 83.269788 L 165.098267 82.418491 L 165.428705 81.365572 L 165.775944 80.307053 L 165.899158 79.954213 L 166.106381 79.248533 L 166.436819 78.195614 L 166.778457 77.137094 L 166.952077 76.610635 L 167.108895 76.078574 L 167.439332 75.025655 L 167.77537 73.967136 L 168.010597 73.250255 L 168.111408 72.908616 L 168.430644 71.855697 L 168.766682 70.797177 L 169.069116 69.861872 L 169.10272 69.738658 L 169.421956 68.685739 L 169.752394 67.627219 L 170.088432 66.568699 L 170.122035 66.462287 L 170.407668 65.51578 L 170.732504 64.457261 L 171.062942 63.398741 L 171.180555 63.0403 L 171.387779 62.345822 L 171.707015 61.287302 L 172.037452 60.228782 L 172.239075 59.595911 L 172.362289 59.175863 L 173.000761 57.058824 M 117.028032 -0.000427332 L 117.291262 0.570837 L 117.520888 1.058092 L 118.008143 2.111011 L 118.349782 2.844694 L 118.495398 3.169531 L 118.982653 4.228051 L 119.402701 5.146555 L 119.464308 5.28097 L 120.427617 7.398009 L 120.461221 7.476418 L 120.903671 8.450928 L 121.374124 9.509448 L 121.51974 9.834285 L 121.844577 10.567968 L 122.31503 11.620887 L 122.572659 12.214554 L 122.779883 12.679406 L 123.244735 13.737926 L 123.631179 14.622826 L 123.709588 14.790845 L 124.16884 15.849365 L 124.622491 16.907884 L 124.689699 17.053501 L 125.081743 17.960803 L 125.535394 19.019323 L 125.742618 19.512179 L 125.989046 20.077843 L 126.437096 21.130762 L 126.801137 21.993259 L 126.885147 22.189282 L 127.333197 23.247801 L 127.775648 24.30072 L 127.859657 24.502343 L 128.218098 25.35924 L 128.660548 26.41776 L 128.912576 27.03943 L 129.097397 27.470679 L 129.534246 28.529198 L 129.965495 29.587718 L 129.971096 29.593319 L 130.833593 31.699157 L 131.029615 32.180811 L 131.264842 32.757676 L 131.696091 33.816196 L 132.082534 34.785106 L 132.116138 34.869115 L 132.547387 35.927635 L 132.967435 36.986155 L 133.141054 37.417403 L 133.393083 38.039074 L 133.81313 39.097593 L 134.199574 40.072103 L 134.227577 40.156113 L 134.653225 41.209032 L 135.067672 42.267552 L 135.252493 42.754807 L 135.482119 43.326071 L 135.896566 44.37899 L 136.305412 45.43751 L 136.311013 45.454312 L 136.719859 46.49603 L 137.128705 47.548949 L 137.369532 48.187421 L 137.531951 48.607468 L 137.940797 49.665988 L 138.344042 50.718907 L 138.422451 50.937332 L 138.752889 51.777427 L 139.150534 52.835947 L 139.480971 53.709645 L 139.548179 53.888866 L 139.957025 54.947385 L 140.349069 56.005905 L 140.539491 56.509962 L 140.746714 57.058824 L 141.14996 58.117344 L 141.536403 59.175863 L 141.59241 59.332681 L 141.934048 60.228782 L 142.326093 61.287302 L 142.650929 62.177803 L 142.718137 62.345822 L 143.110181 63.398741 L 143.496625 64.457261 L 143.709449 65.045327 L 143.883069 65.51578 L 144.275113 66.568699 L 144.655956 67.627219 L 144.762368 67.935254 L 145.048 68.685739 L 145.428843 69.738658 L 145.804086 70.797177 L 145.820888 70.841982 L 146.19613 71.855697 L 146.576973 72.908616 L 146.879407 73.782315 M 173.000761 153.216096 L 173.291994 154.145801 L 173.331198 154.274616 L 173.644834 155.333135 L 173.96407 156.386054 L 174.294507 157.444574 L 174.350513 157.629395 L 174.608143 158.503094 L 174.921778 159.556013 L 175.246615 160.614532 L 175.409033 161.129791 L 175.565851 161.673052 L 175.879486 162.725971 L 176.198722 163.784491 L 176.461952 164.652589 L 176.517959 164.843011 L 176.825993 165.89593 L 177.464466 168.012969 L 177.520472 168.192189 L 177.7725 169.065888 L 178.086136 170.124408 L 178.405372 171.182927 L 178.578992 171.754192 L 178.719007 172.235846 L 179.335077 174.352886 L 179.631911 175.332997 L 179.654313 175.405805 L 180.270383 177.522844 L 180.584018 178.575763 L 180.69043 178.934204 L 180.892053 179.634283 L 181.194487 180.692803 L 181.508123 181.745722 L 181.74895 182.552213 L 181.816158 182.804241 L 182.124192 183.862761 L 182.426627 184.91568 L 182.740262 185.9742 L 182.801869 186.192624 L 183.042696 187.032719 L 183.34513 188.085639 L 183.653165 189.144158 L 183.860389 189.844237 L 183.9612 190.202678 L 184.263634 191.255597 L 184.566068 192.314117 L 184.874103 193.372636 L 184.918908 193.523853 L 185.170937 194.425555 L 185.775805 196.542595 L 185.971827 197.214671 L 186.078239 197.595514 L 186.380674 198.654033 L 186.677507 199.712553 L 186.985542 200.765472 L 187.030347 200.933491 L 187.282376 201.823992 L 187.579209 202.882512 L 187.881643 203.935431 L 188.088867 204.663513 L 188.178477 204.99395 L 188.47531 206.05247 L 188.772144 207.105389 L 189.074578 208.163909 L 189.141786 208.415937 L 189.365811 209.222428 L 189.662645 210.275347 M 146.879407 136.498206 L 146.946615 136.307784 L 147.333059 135.254865 L 147.708301 134.196346 L 147.932327 133.541071 L 148.083544 133.143426 L 148.464387 132.084907 L 148.834028 131.026387 L 148.990846 130.555934 L 149.209271 129.967867 L 149.590114 128.914948 L 149.948554 127.856429 L 150.049366 127.559595 L 150.329398 126.797909 L 150.699039 125.74499 L 151.05748 124.68647 L 151.102285 124.535253 L 151.438323 123.627951 L 151.807965 122.575032 L 152.155204 121.516512 L 152.160805 121.488509 L 152.541648 120.457992 L 152.905689 119.405073 L 153.219324 118.419362 L 153.247327 118.346553 L 153.639372 117.288034 L 153.997812 116.235115 L 154.272243 115.327812 L 154.33385 115.176595 L 154.731495 114.118075 L 155.084335 113.065156 L 155.330763 112.21386 L 155.420373 112.006637 L 155.83482 110.948117 L 156.176459 109.895198 L 156.389283 109.066304 L 156.523698 108.836678 L 156.994151 107.778159 L 157.313387 106.72524 L 157.442202 105.834739 L 157.839847 106.72524 L 158.500721 107.470124 L 158.556728 107.778159 L 158.831159 108.836678 L 159.206401 109.895198 L 159.559241 110.696089 L 159.620848 110.948117 L 159.923282 112.006637 L 160.281723 113.065156 L 160.61216 113.922053 L 160.668166 114.118075 L 160.981802 115.176595 L 161.329041 116.235115 L 161.67068 117.16482 L 161.704284 117.288034 L 162.02352 118.346553 L 162.365158 119.405073 L 162.7292 120.429989 L 162.7348 120.457992 L 163.054036 121.516512 L 163.395675 122.575032 L 163.754115 123.627951 L 163.782119 123.706359 L 164.078952 124.68647 L 164.41499 125.74499 L 164.76783 126.797909 L 164.840638 127.005132 L 165.098267 127.856429 L 165.428705 128.914948 L 165.775944 129.967867 L 165.899158 130.326308 L 166.106381 131.026387 L 166.436819 132.084907 L 166.778457 133.143426 L 166.952077 133.669886 L 167.108895 134.196346 L 167.433731 135.254865 L 167.77537 136.307784 L 168.010597 137.030266 L 168.111408 137.366304 L 168.430644 138.424824 L 168.766682 139.483343 L 169.069116 140.418649 L 169.10272 140.536262 L 169.421956 141.594782 L 169.752394 142.653302 L 170.088432 143.706221 L 170.122035 143.818233 L 170.407668 144.76474 L 170.732504 145.82326 L 171.062942 146.876179 L 171.180555 147.24022 L 171.387779 147.934699 L 171.707015 148.993219 L 172.037452 150.046138 L 172.239075 150.68461 L 172.362289 151.104657 L 172.675924 152.163177 L 173.000761 153.216096 M 117.028032 210.275347 L 117.291262 209.709683 L 117.520888 209.222428 L 118.013744 208.163909 L 118.349782 207.435826 L 118.500999 207.105389 L 118.982653 206.05247 L 119.402701 205.133966 L 119.469908 204.99395 L 119.951563 203.935431 L 120.427617 202.882512 L 120.461221 202.804103 L 120.903671 201.823992 L 121.374124 200.765472 L 121.51974 200.446236 L 121.844577 199.712553 L 122.31503 198.654033 L 122.572659 198.065967 L 122.779883 197.595514 L 123.244735 196.542595 L 123.631179 195.657695 L 123.709588 195.484075 L 124.16884 194.425555 L 124.628092 193.372636 L 124.689699 193.22702 L 125.081743 192.314117 L 125.535394 191.255597 L 125.742618 190.768342 L 125.989046 190.202678 L 126.437096 189.144158 L 126.801137 188.287261 L 126.885147 188.085639 L 127.333197 187.032719 L 127.775648 185.9742 L 127.859657 185.778178 L 128.218098 184.91568 L 128.660548 183.862761 L 128.912576 183.241091 L 129.097397 182.804241 L 129.534246 181.745722 L 129.971096 180.692803 L 129.971096 180.687202 L 130.402345 179.634283 L 130.833593 178.575763 L 131.029615 178.099709 L 131.264842 177.522844 L 131.696091 176.464325 L 132.082534 175.495415 L 132.121739 175.405805 L 132.547387 174.352886 L 132.973035 173.294366 L 133.141054 172.863117 L 133.393083 172.235846 L 133.81313 171.182927 L 134.199574 170.208417 L 134.233178 170.124408 L 134.653225 169.065888 L 135.067672 168.012969 L 135.252493 167.525714 L 135.482119 166.954449 L 135.896566 165.89593 L 136.305412 164.843011 L 136.311013 164.826209 L 136.719859 163.784491 L 137.128705 162.725971 L 137.369532 162.0931 L 137.531951 161.673052 L 137.940797 160.614532 L 138.344042 159.556013 L 138.422451 159.343189 L 138.752889 158.503094 L 139.156134 157.444574 L 139.480971 156.570875 L 139.553779 156.386054 L 139.957025 155.333135 L 140.35467 154.274616 L 140.539491 153.770559 L 140.752315 153.216096 L 141.14996 152.163177 L 141.536403 151.104657 L 141.59241 150.94784 L 141.939649 150.046138 L 142.331693 148.993219 L 142.650929 148.102718 L 142.718137 147.934699 L 143.110181 146.876179 L 143.496625 145.82326 L 143.709449 145.235194 L 143.888669 144.76474 L 144.275113 143.706221 L 144.655956 142.653302 L 144.762368 142.345267 L 145.048 141.594782 L 145.428843 140.536262 L 145.804086 139.483343 L 145.820888 139.438538 L 146.19613 138.424824 L 146.576973 137.366304 L 146.879407 136.498206 M 5.92267 16.907884 L 6.236306 14.790845 L 6.342718 14.090766 L 6.393123 13.737926 L 6.561142 12.679406 L 6.723561 11.620887 L 6.89158 10.567968 L 7.238819 8.450928 L 7.395637 7.482019 L 7.412439 7.398009 L 7.591659 6.339489 L 7.77648 5.28097 L 7.961301 4.228051 L 8.146122 3.169531 L 8.336543 2.111011 L 8.454157 1.472539 L 8.532565 1.058092 L 8.728588 -0.000427332 M 0.0700086 115.176595 L 0.0588073 114.118075 L 0.047606 113.065156 L 0.0252035 110.948117 L 0.0140022 109.895198 L 0.00280096 107.778159 L 0.00280096 102.496761 L 0.0084016 101.438242 L 0.0140022 100.385323 L 0.0364048 98.268283 L 0.047606 97.215364 L 0.0700086 95.098325 L 0.0868105 94.045406 L 0.103612 92.986886 L 0.126015 91.928367 L 0.142817 90.875447 L 0.165219 89.816928 L 0.193222 88.758408 L 0.215625 87.705489 L 0.271631 85.58845 L 0.305235 84.535531 L 0.333238 83.477011 L 0.366842 82.418491 L 0.406047 81.365572 L 0.43965 80.307053 L 0.478855 79.248533 L 0.518059 78.195614 L 0.557264 77.137094 L 0.602069 76.078574 L 0.646874 75.025655 L 0.691679 73.967136 L 0.742085 72.908616 L 0.79249 71.855697 L 0.893302 69.738658 L 0.949308 68.685739 L 1.005314 67.627219 L 1.05572 66.675111 L 1.061321 66.568699 L 1.122928 65.51578 L 1.184535 64.457261 L 1.251742 63.398741 L 1.313349 62.345822 L 1.380557 61.287302 L 1.453365 60.228782 L 1.520573 59.175863 L 1.666189 57.058824 L 1.744598 56.005905 L 1.817406 54.947385 L 1.895815 53.888866 L 1.979824 52.835947 L 2.058233 51.777427 L 2.11424 51.105351 L 2.142243 50.718907 L 2.231853 49.665988 L 2.411073 47.548949 L 2.506284 46.49603 L 2.696706 44.37899 L 2.791916 43.326071 L 2.993539 41.209032 L 3.094351 40.156113 L 3.167159 39.411229 L 3.200763 39.097593 L 3.312775 38.039074 L 3.424788 36.986155 L 3.648813 34.869115 L 3.766426 33.816196 L 4.001653 31.699157 L 4.124867 30.646238 L 4.225678 29.761338 L 4.248081 29.587718 L 4.50571 27.470679 L 4.640125 26.41776 L 4.908956 24.30072 L 5.043371 23.247801 L 5.183387 22.189282 L 5.284198 21.444397 L 5.323403 21.130762 L 5.47462 20.077843 L 5.620236 19.019323 L 5.771453 17.960803 L 5.92267 16.907884 M 8.728588 210.275347 L 8.532565 209.222428 L 8.454157 208.807981 L 8.336543 208.163909 L 8.146122 207.105389 L 7.961301 206.05247 L 7.591659 203.935431 L 7.412439 202.882512 L 7.395637 202.798502 L 7.238819 201.823992 L 7.065199 200.765472 L 6.89158 199.712553 L 6.723561 198.654033 L 6.561142 197.595514 L 6.393123 196.542595 L 6.342718 196.189755 L 6.236306 195.484075 L 6.079488 194.425555 L 5.92267 193.372636 L 5.620236 191.255597 L 5.47462 190.202678 L 5.323403 189.144158 L 5.284198 188.836123 L 5.183387 188.085639 L 5.043371 187.032719 L 4.77454 184.91568 L 4.640125 183.862761 L 4.50571 182.804241 L 4.376896 181.745722 L 4.248081 180.692803 L 4.225678 180.519183 L 4.124867 179.634283 L 4.001653 178.575763 L 3.88404 177.522844 L 3.648813 175.405805 L 3.536801 174.352886 L 3.419187 173.294366 L 3.312775 172.235846 L 3.200763 171.182927 L 3.167159 170.869292 L 3.094351 170.124408 L 2.993539 169.065888 L 2.892728 168.012969 L 2.791916 166.954449 L 2.696706 165.89593 L 2.601495 164.843011 L 2.411073 162.725971 L 2.321463 161.673052 L 2.142243 159.556013 L 2.11424 159.17517 L 2.058233 158.503094 L 1.979824 157.444574 L 1.895815 156.386054 L 1.817406 155.333135 L 1.744598 154.274616 L 1.666189 153.216096 L 1.593381 152.163177 L 1.447764 150.046138 L 1.380557 148.993219 L 1.313349 147.934699 L 1.251742 146.876179 L 1.184535 145.82326 L 1.061321 143.706221 L 1.05572 143.605409 L 1.005314 142.653302 L 0.893302 140.536262 L 0.842896 139.483343 L 0.691679 136.307784 L 0.646874 135.254865 L 0.602069 134.196346 L 0.557264 133.143426 L 0.43965 129.967867 L 0.406047 128.914948 L 0.366842 127.856429 L 0.333238 126.797909 L 0.305235 125.74499 L 0.271631 124.68647 L 0.243628 123.627951 L 0.215625 122.575032 L 0.193222 121.516512 L 0.165219 120.457992 L 0.142817 119.405073 L 0.126015 118.346553 L 0.103612 117.288034 L 0.0868105 116.235115 L 0.0700086 115.176595 " transform="matrix(0.697466,0,0,-0.697466,18.333984,186.659858)" />
</g>
<path style="fill:none;stroke-width:0.19925;stroke-linecap:butt;stroke-linejoin:miter;stroke:rgb(100%,100%,100%);stroke-opacity:1;stroke-miterlimit:10;" d="M -0.00279967 103.01202 L -0.00279967 107.268501 M 52.570344 103.01202 L 52.570344 107.268501 M 157.711032 103.01202 L 157.711032 107.268501 M 210.278576 103.01202 L 210.278576 107.268501 " transform="matrix(0.697466,0,0,-0.697466,18.333984,186.659858)" />
<path style="fill:none;stroke-width:0.19925;stroke-linecap:butt;stroke-linejoin:miter;stroke:rgb(100%,100%,100%);stroke-opacity:1;stroke-miterlimit:10;" d="M 103.015248 -0.000427332 L 107.266129 -0.000427332 M 103.015248 52.572717 L 107.266129 52.572717 M 103.015248 157.707804 L 107.266129 157.707804 M 103.015248 210.280948 L 107.266129 210.280948 " transform="matrix(0.697466,0,0,-0.697466,18.333984,186.659858)" />
<path style="fill:none;stroke-width:0.3985;stroke-linecap:butt;stroke-linejoin:miter;stroke:rgb(100%,100%,100%);stroke-opacity:1;stroke-miterlimit:10;" d="M -0.00279967 105.14026 L 208.28475 105.14026 " transform="matrix(0.697466,0,0,-0.697466,18.333984,186.659858)" />
<path style=" stroke:none;fill-rule:nonzero;fill:rgb(100%,100%,100%);fill-opacity:1;" d="M 164.996094 113.328125 L 162.773438 112.214844 L 163.605469 113.328125 L 162.773438 114.441406 " />
<path style="fill:none;stroke-width:0.3985;stroke-linecap:butt;stroke-linejoin:miter;stroke:rgb(100%,100%,100%);stroke-opacity:1;stroke-miterlimit:10;" d="M 105.137888 -0.000427332 L 105.137888 208.287123 " transform="matrix(0.697466,0,0,-0.697466,18.333984,186.659858)" />
<path style=" stroke:none;fill-rule:nonzero;fill:rgb(100%,100%,100%);fill-opacity:1;" d="M 91.664062 39.996094 L 90.554688 42.21875 L 91.664062 41.386719 L 92.777344 42.21875 " />
<g style="fill:rgb(100%,100%,100%);fill-opacity:1;">
  <use xlink:href="#glyph0-1" x="14.228003" y="121.296853" />
</g>
<g style="fill:rgb(100%,100%,100%);fill-opacity:1;">
  <use xlink:href="#glyph1-1" x="19.227256" y="121.296853" />
</g>
<g style="fill:rgb(100%,100%,100%);fill-opacity:1;">
  <use xlink:href="#glyph0-1" x="50.893081" y="121.296853" />
</g>
<g style="fill:rgb(100%,100%,100%);fill-opacity:1;">
  <use xlink:href="#glyph1-2" x="55.892335" y="121.296853" />
</g>
<g style="fill:rgb(100%,100%,100%);fill-opacity:1;">
  <use xlink:href="#glyph1-2" x="126.722955" y="121.296853" />
</g>
<g style="fill:rgb(100%,100%,100%);fill-opacity:1;">
  <use xlink:href="#glyph1-1" x="163.388731" y="121.296853" />
</g>
<g style="fill:rgb(100%,100%,100%);fill-opacity:1;">
  <use xlink:href="#glyph0-1" x="79.514287" y="188.385389" />
</g>
<g style="fill:rgb(100%,100%,100%);fill-opacity:1;">
  <use xlink:href="#glyph1-1" x="84.51354" y="188.385389" />
</g>
<g style="fill:rgb(100%,100%,100%);fill-opacity:1;">
  <use xlink:href="#glyph0-1" x="79.514287" y="151.72031" />
</g>
<g style="fill:rgb(100%,100%,100%);fill-opacity:1;">
  <use xlink:href="#glyph1-2" x="84.51354" y="151.72031" />
</g>
<g style="fill:rgb(100%,100%,100%);fill-opacity:1;">
  <use xlink:href="#glyph1-2" x="84.513024" y="78.678904" />
</g>
<g style="fill:rgb(100%,100%,100%);fill-opacity:1;">
  <use xlink:href="#glyph1-1" x="84.513024" y="42.013826" />
</g>
<g style="fill:rgb(100%,100%,100%);fill-opacity:1;">
  <use xlink:href="#glyph2-1" x="167.450074" y="114.825068" />
</g>
<g style="fill:rgb(100%,100%,100%);fill-opacity:1;">
  <use xlink:href="#glyph3-1" x="23.140918" y="30.01323" />
</g>
<g style="fill:rgb(100%,100%,100%);fill-opacity:1;">
  <use xlink:href="#glyph4-1" x="32.014775" y="23.739525" />
</g>
<g style="fill:rgb(100%,100%,100%);fill-opacity:1;">
  <use xlink:href="#glyph5-1" x="43.773351" y="30.01323" />
</g>
<g style="fill:rgb(100%,100%,100%);fill-opacity:1;">
  <use xlink:href="#glyph3-2" x="61.023471" y="30.01323" />
</g>
<g style="fill:rgb(100%,100%,100%);fill-opacity:1;">
  <use xlink:href="#glyph4-2" x="70.639732" y="23.739525" />
</g>
<g style="fill:rgb(100%,100%,100%);fill-opacity:1;">
  <use xlink:href="#glyph6-1" x="81.438595" y="30.01323" />
</g>
<g style="fill:rgb(100%,100%,100%);fill-opacity:1;">
  <use xlink:href="#glyph5-2" x="98.723291" y="30.01323" />
  <use xlink:href="#glyph5-3" x="106.651639" y="30.01323" />
</g>
<g style="fill:rgb(100%,100%,100%);fill-opacity:1;">
  <use xlink:href="#glyph3-2" x="114.579986" y="30.01323" />
</g>
<g style="fill:rgb(100%,100%,100%);fill-opacity:1;">
  <use xlink:href="#glyph5-4" x="128.037085" y="30.01323" />
</g>
<g style="fill:rgb(100%,100%,100%);fill-opacity:1;">
  <use xlink:href="#glyph5-5" x="144.336356" y="30.01323" />
  <use xlink:href="#glyph5-6" x="152.264704" y="30.01323" />
</g>
</g>
</svg>